<svg xmlns="http://www.w3.org/2000/svg" width="54.264" height="56.283" viewBox="0 0 54.264 56.283"><g transform="translate(-347.213 903.92)"><path d="M408.163-880.249a.565.565,0,0,1-.484-.271.566.566,0,0,1,.189-.777,26.173,26.173,0,0,1,13.621-3.811.566.566,0,0,1,.566.566.566.566,0,0,1-.566.566,25.04,25.04,0,0,0-13.033,3.646A.564.564,0,0,1,408.163-880.249Z" transform="translate(-48.056 -14.97)"/><path d="M348.459-783.461a.566.566,0,0,1-.55-.436,26.354,26.354,0,0,1-.7-6.024,26.2,26.2,0,0,1,1.288-8.138.566.566,0,0,1,.713-.362.566.566,0,0,1,.362.713,25.068,25.068,0,0,0-1.232,7.787,25.219,25.219,0,0,0,.666,5.765.566.566,0,0,1-.421.68A.569.569,0,0,1,348.459-783.461Z" transform="translate(0 -83.937)"/><path d="M393.92-672.007a25.947,25.947,0,0,1-11.817-2.807,26.463,26.463,0,0,1-9.033-7.51.566.566,0,0,1,.106-.793.566.566,0,0,1,.793.106,25.326,25.326,0,0,0,8.644,7.187,24.826,24.826,0,0,0,11.306,2.686,25.326,25.326,0,0,0,4.529-.407.566.566,0,0,1,.658.455.565.565,0,0,1-.455.658A26.457,26.457,0,0,1,393.92-672.007Z" transform="translate(-20.486 -175.63)"/><path d="M466.34-672.516a25.947,25.947,0,0,1-11,5.145,26.466,26.466,0,0,1-11.744-.269.566.566,0,0,1-.41-.687.566.566,0,0,1,.687-.409,25.33,25.33,0,0,0,11.239.258,24.825,24.825,0,0,0,10.526-4.923,25.32,25.32,0,0,0,3.294-3.134.566.566,0,0,1,.8-.052.566.566,0,0,1,.052.8A26.473,26.473,0,0,1,466.34-672.516Z" transform="translate(-76.364 -180.807)"/><path d="M593.786-730.84a.562.562,0,0,1-.15-.02.566.566,0,0,1-.4-.7c.209-.76.384-1.539.52-2.317a.566.566,0,0,1,.655-.46.566.566,0,0,1,.46.654c-.142.813-.325,1.628-.543,2.422A.566.566,0,0,1,593.786-730.84Z" transform="translate(-195.781 -134.957)"/><path d="M579.42-822.5a.566.566,0,0,1-.553-.448,24.825,24.825,0,0,0-4.247-9.509.566.566,0,0,1,.124-.79.566.566,0,0,1,.79.124,25.955,25.955,0,0,1,4.439,9.939.566.566,0,0,1-.436.671A.556.556,0,0,1,579.42-822.5Z" transform="translate(-180.893 -56.155)"/><g transform="translate(395.933 -876.88)"><g transform="translate(0 2.214)"><path d="M587.317-759.528h-.905a.556.556,0,0,1-.566-.554.556.556,0,0,1,.566-.553h.905a.555.555,0,0,1,.566.553A.555.555,0,0,1,587.317-759.528Z" transform="translate(-585.846 760.635)"/><path d="M604.055-759.528h-1.018a.556.556,0,0,1-.566-.554.556.556,0,0,1,.566-.553h1.018a.556.556,0,0,1,.566.553A.556.556,0,0,1,604.055-759.528Z" transform="translate(-599.077 760.635)"/></g><g transform="translate(2.125)"><path d="M596.838-752.261a.582.582,0,0,1-.584-.566v-.905a.582.582,0,0,1,.584-.566.582.582,0,0,1,.584.566v.905A.582.582,0,0,1,596.838-752.261Z" transform="translate(-596.254 757.805)"/><path d="M596.838-769.327a.582.582,0,0,1-.584-.566v-1.018a.582.582,0,0,1,.584-.566.582.582,0,0,1,.584.566v1.018A.582.582,0,0,1,596.838-769.327Z" transform="translate(-596.254 771.477)"/></g></g><g transform="translate(386.939 -903.92)"><g transform="translate(0 2.191)"><path d="M543.262-892.018h-.905a.582.582,0,0,1-.566-.584.582.582,0,0,1,.566-.584h.905a.582.582,0,0,1,.566.584A.582.582,0,0,1,543.262-892.018Z" transform="translate(-541.791 893.187)"/><path d="M560-892.018h-1.018a.582.582,0,0,1-.566-.584.582.582,0,0,1,.566-.584H560a.582.582,0,0,1,.566.584A.582.582,0,0,1,560-892.018Z" transform="translate(-555.022 893.187)"/></g><g transform="translate(2.14 0)"><path d="M552.855-884.7a.582.582,0,0,1-.584-.566v-.905a.582.582,0,0,1,.584-.566.582.582,0,0,1,.584.566v.905A.582.582,0,0,1,552.855-884.7Z" transform="translate(-552.271 890.248)"/><path d="M552.855-901.77a.582.582,0,0,1-.584-.566v-1.018a.582.582,0,0,1,.584-.566.582.582,0,0,1,.584.566v1.018A.582.582,0,0,1,552.855-901.77Z" transform="translate(-552.271 903.92)"/></g></g><path d="M571.979-865.786a1.518,1.518,0,0,1-1.517-1.516,1.518,1.518,0,0,1,1.517-1.516A1.518,1.518,0,0,1,573.5-867.3,1.518,1.518,0,0,1,571.979-865.786Zm0-1.9a.386.386,0,0,0-.385.385.386.386,0,0,0,.385.385.386.386,0,0,0,.385-.385A.386.386,0,0,0,571.979-867.688Z" transform="translate(-177.67 -27.935)"/><g transform="translate(352.069 -892.395)"><path d="M428.17-789.42H410.575a3.67,3.67,0,0,1-3.666-3.666v-21.994a3.67,3.67,0,0,1,3.666-3.666H428.17a3.67,3.67,0,0,1,3.666,3.666v21.994A3.67,3.67,0,0,1,428.17-789.42Zm-17.595-27.859a2.2,2.2,0,0,0-2.2,2.2v21.994a2.2,2.2,0,0,0,2.2,2.2H428.17a2.2,2.2,0,0,0,2.2-2.2v-21.994a2.2,2.2,0,0,0-2.2-2.2Z" transform="translate(-399.578 824.61)"/><path d="M376.132-816.681h-1.466A3.67,3.67,0,0,1,371-820.346v-23.46a3.67,3.67,0,0,1,3.666-3.666h17.595a3.67,3.67,0,0,1,3.666,3.666.733.733,0,0,1-.733.733.733.733,0,0,1-.733-.733,2.2,2.2,0,0,0-2.2-2.2H374.666a2.2,2.2,0,0,0-2.2,2.2v23.46a2.2,2.2,0,0,0,2.2,2.2h1.466a.733.733,0,0,1,.733.733A.733.733,0,0,1,376.132-816.681Z" transform="translate(-371 847.472)"/><path d="M448.1-731.1h-11.73a.734.734,0,0,1-.733-.733.733.733,0,0,1,.733-.733H448.1a.733.733,0,0,1,.733.733A.734.734,0,0,1,448.1-731.1Z" transform="translate(-422.44 756.023)"/><path d="M448.1-702.37h-11.73a.733.733,0,0,1-.733-.733.733.733,0,0,1,.733-.733H448.1a.733.733,0,0,1,.733.733A.733.733,0,0,1,448.1-702.37Z" transform="translate(-422.44 733.161)"/><path d="M448.1-759.824h-11.73a.733.733,0,0,1-.733-.733.734.734,0,0,1,.733-.733H448.1a.734.734,0,0,1,.733.733A.733.733,0,0,1,448.1-759.824Z" transform="translate(-422.44 778.885)"/><path d="M448.1-788.551h-11.73a.733.733,0,0,1-.733-.733.733.733,0,0,1,.733-.733H448.1a.733.733,0,0,1,.733.733A.733.733,0,0,1,448.1-788.551Z" transform="translate(-422.44 801.747)"/></g></g></svg>