<svg xmlns="http://www.w3.org/2000/svg" width="52.482" height="54.435" viewBox="0 0 52.482 54.435"><g transform="translate(-789.213 903.92)"><path d="M850.145-880.408a.547.547,0,0,1-.468-.262.547.547,0,0,1,.183-.752,25.314,25.314,0,0,1,13.174-3.686.547.547,0,0,1,.547.547.547.547,0,0,1-.547.547,24.218,24.218,0,0,0-12.6,3.527A.545.545,0,0,1,850.145-880.408Z" transform="translate(-48.461 -15.097)"/><path d="M790.418-783.953a.547.547,0,0,1-.532-.422,25.488,25.488,0,0,1-.673-5.826,25.342,25.342,0,0,1,1.245-7.871.547.547,0,0,1,.69-.35.547.547,0,0,1,.35.69,24.245,24.245,0,0,0-1.191,7.532,24.388,24.388,0,0,0,.644,5.576.547.547,0,0,1-.408.658A.552.552,0,0,1,790.418-783.953Z" transform="translate(0 -84.643)"/><path d="M835.232-672.375a25.1,25.1,0,0,1-11.429-2.715,25.6,25.6,0,0,1-8.736-7.264.547.547,0,0,1,.1-.767.547.547,0,0,1,.767.1,24.5,24.5,0,0,0,8.36,6.951,24.011,24.011,0,0,0,10.935,2.6,24.5,24.5,0,0,0,4.38-.394.547.547,0,0,1,.636.44.547.547,0,0,1-.44.636A25.583,25.583,0,0,1,835.232-672.375Z" transform="translate(-20.659 -177.109)"/><path d="M907.579-672.655a25.1,25.1,0,0,1-10.641,4.976,25.6,25.6,0,0,1-11.358-.261.547.547,0,0,1-.4-.665.547.547,0,0,1,.665-.4,24.5,24.5,0,0,0,10.87.249,24.01,24.01,0,0,0,10.181-4.761,24.483,24.483,0,0,0,3.186-3.031.547.547,0,0,1,.772-.051.547.547,0,0,1,.051.772A25.6,25.6,0,0,1,907.579-672.655Z" transform="translate(-77.007 -182.329)"/><path d="M1035.767-730.954a.542.542,0,0,1-.145-.02.547.547,0,0,1-.383-.672c.2-.735.371-1.489.5-2.241a.547.547,0,0,1,.633-.445.547.547,0,0,1,.445.633c-.137.786-.314,1.574-.525,2.343A.547.547,0,0,1,1035.767-730.954Z" transform="translate(-197.43 -136.094)"/><path d="M1021.259-822.859a.548.548,0,0,1-.535-.433,24.008,24.008,0,0,0-4.107-9.2.547.547,0,0,1,.12-.764.547.547,0,0,1,.764.12,25.1,25.1,0,0,1,4.293,9.613.547.547,0,0,1-.421.649A.54.54,0,0,1,1021.259-822.859Z" transform="translate(-182.416 -56.628)"/><g transform="translate(789.719 -867.208)"><g transform="translate(0 2.11)"><path d="M793.2-706.183h-.875a.563.563,0,0,1-.547-.565.563.563,0,0,1,.547-.565h.875a.563.563,0,0,1,.547.565A.563.563,0,0,1,793.2-706.183Z" transform="translate(-791.777 707.313)"/><path d="M809.934-706.183h-.985a.563.563,0,0,1-.547-.565.563.563,0,0,1,.547-.565h.985a.563.563,0,0,1,.547.565A.563.563,0,0,1,809.934-706.183Z" transform="translate(-805.119 707.313)"/></g><g transform="translate(2.092 0)"><path d="M802.906-698.853a.537.537,0,0,1-.535-.547v-.875a.537.537,0,0,1,.535-.547.537.537,0,0,1,.536.547v.875A.537.537,0,0,1,802.906-698.853Z" transform="translate(-802.371 704.214)"/><path d="M802.906-715.922a.537.537,0,0,1-.535-.547v-.985a.537.537,0,0,1,.535-.547.537.537,0,0,1,.536.547v.985A.537.537,0,0,1,802.906-715.922Z" transform="translate(-802.371 718.001)"/></g></g><g transform="translate(836.334 -877.768)"><g transform="translate(0 2.141)"><path d="M1029.269-759.564h-.875a.537.537,0,0,1-.547-.536.537.537,0,0,1,.547-.535h.875a.537.537,0,0,1,.547.535A.537.537,0,0,1,1029.269-759.564Z" transform="translate(-1027.846 760.635)"/><path d="M1046-759.564h-.985a.537.537,0,0,1-.547-.536.537.537,0,0,1,.547-.535H1046a.537.537,0,0,1,.547.535A.537.537,0,0,1,1046-759.564Z" transform="translate(-1041.188 760.635)"/></g><g transform="translate(2.055 0)"><path d="M1038.819-752.328a.563.563,0,0,1-.565-.547v-.875a.563.563,0,0,1,.565-.547.563.563,0,0,1,.565.547v.875A.563.563,0,0,1,1038.819-752.328Z" transform="translate(-1038.254 757.69)"/><path d="M1038.819-769.4a.563.563,0,0,1-.565-.547v-.985a.563.563,0,0,1,.565-.547.563.563,0,0,1,.565.547v.985A.563.563,0,0,1,1038.819-769.4Z" transform="translate(-1038.254 771.477)"/></g></g><g transform="translate(827.635 -903.92)"><g transform="translate(0 2.119)"><path d="M985.213-892.057h-.875a.563.563,0,0,1-.547-.565.563.563,0,0,1,.547-.565h.875a.563.563,0,0,1,.547.565A.563.563,0,0,1,985.213-892.057Z" transform="translate(-983.791 893.187)"/><path d="M1001.948-892.057h-.985a.563.563,0,0,1-.547-.565.563.563,0,0,1,.547-.565h.985a.563.563,0,0,1,.547.565A.563.563,0,0,1,1001.948-892.057Z" transform="translate(-997.133 893.187)"/></g><g transform="translate(2.069 0)"><path d="M994.836-884.771a.563.563,0,0,1-.565-.547v-.875a.563.563,0,0,1,.565-.547.563.563,0,0,1,.565.547v.875A.563.563,0,0,1,994.836-884.771Z" transform="translate(-994.271 890.133)"/><path d="M994.836-901.841a.563.563,0,0,1-.565-.547v-.985a.563.563,0,0,1,.565-.547.563.563,0,0,1,.565.547v.985A.563.563,0,0,1,994.836-901.841Z" transform="translate(-994.271 903.92)"/></g></g><path d="M818.791-753.251a1.468,1.468,0,0,1-1.467-1.467,1.468,1.468,0,0,1,1.467-1.467,1.468,1.468,0,0,1,1.467,1.467A1.468,1.468,0,0,1,818.791-753.251Zm0-1.839a.373.373,0,0,0-.373.372.373.373,0,0,0,.373.373.373.373,0,0,0,.372-.373A.373.373,0,0,0,818.791-755.091Z" transform="translate(-22.56 -118.563)"/><path d="M1013.929-865.885a1.469,1.469,0,0,1-1.467-1.467,1.469,1.469,0,0,1,1.467-1.467,1.468,1.468,0,0,1,1.467,1.467A1.468,1.468,0,0,1,1013.929-865.885Zm0-1.839a.373.373,0,0,0-.373.373.373.373,0,0,0,.373.373.373.373,0,0,0,.372-.373A.373.373,0,0,0,1013.929-867.725Z" transform="translate(-179.166 -28.17)"/><g transform="translate(804.745 -889.692)"><g transform="translate(0 12.608)"><path d="M877.956-768.013a10.175,10.175,0,0,0-10.083,10.244.776.776,0,0,0,.776.776.776.776,0,0,0,.776-.776,8.533,8.533,0,0,1,8.4-8.662,8.532,8.532,0,0,1,8.662,8.4c0,.087,0,.174,0,.26a.776.776,0,0,0,.776.776.776.776,0,0,0,.776-.776A10.176,10.176,0,0,0,877.956-768.013Z" transform="translate(-867.873 768.013)"/></g><g transform="translate(4.476 0)"><path d="M896.146-831.865a5.516,5.516,0,0,0-5.6,5.428,5.516,5.516,0,0,0,5.428,5.6,5.516,5.516,0,0,0,5.6-5.428q0-.044,0-.087A5.48,5.48,0,0,0,896.146-831.865Zm0,9.454a3.941,3.941,0,0,1-4-3.881,3.941,3.941,0,0,1,3.881-4,3.941,3.941,0,0,1,4,3.88q0,.03,0,.06A3.915,3.915,0,0,1,896.146-822.411Z" transform="translate(-890.542 831.866)"/></g></g></g></svg>