<svg xmlns="http://www.w3.org/2000/svg" width="58.863" height="54.477" viewBox="0 0 58.863 54.477"><g transform="translate(-1146.456 903.92)"><g transform="translate(1199.085 -875.928)"><g transform="translate(0 2.073)"><path d="M1414.173-750.67h-.86a.553.553,0,0,1-.538-.555.553.553,0,0,1,.538-.555h.86a.553.553,0,0,1,.538.555A.553.553,0,0,1,1414.173-750.67Z" transform="translate(-1412.775 751.78)"/><path d="M1430.607-750.67h-.968a.553.553,0,0,1-.538-.555.553.553,0,0,1,.538-.555h.968a.553.553,0,0,1,.538.555A.553.553,0,0,1,1430.607-750.67Z" transform="translate(-1425.875 751.78)"/></g><g transform="translate(2.058 0)"><path d="M1423.715-743.462a.528.528,0,0,1-.526-.538v-.86a.527.527,0,0,1,.526-.538.527.527,0,0,1,.526.538v.86A.527.527,0,0,1,1423.715-743.462Z" transform="translate(-1423.19 748.732)"/><path d="M1423.715-760.226a.527.527,0,0,1-.526-.538v-.968a.528.528,0,0,1,.526-.538.528.528,0,0,1,.526.538v.968A.527.527,0,0,1,1423.715-760.226Z" transform="translate(-1423.19 762.269)"/></g></g><path d="M1251.145-880.4a.548.548,0,0,1-.468-.263.548.548,0,0,1,.183-.753,25.333,25.333,0,0,1,13.184-3.689.548.548,0,0,1,.548.548.547.547,0,0,1-.548.547,24.238,24.238,0,0,0-12.615,3.529A.546.546,0,0,1,1251.145-880.4Z" transform="translate(-83.561 -15.094)"/><path d="M1236.248-672.367a25.115,25.115,0,0,1-11.438-2.717,25.614,25.614,0,0,1-8.743-7.269.548.548,0,0,1,.1-.767.548.548,0,0,1,.768.1,24.514,24.514,0,0,0,8.367,6.957,24.029,24.029,0,0,0,10.944,2.6,24.512,24.512,0,0,0,4.383-.394.547.547,0,0,1,.637.44.547.547,0,0,1-.44.637A25.612,25.612,0,0,1,1236.248-672.367Z" transform="translate(-55.765 -177.076)"/><path d="M1308.6-672.652a25.115,25.115,0,0,1-10.649,4.98,25.618,25.618,0,0,1-11.367-.261.548.548,0,0,1-.4-.665.548.548,0,0,1,.665-.4,24.519,24.519,0,0,0,10.879.25,24.03,24.03,0,0,0,10.189-4.765,24.5,24.5,0,0,0,3.189-3.033.548.548,0,0,1,.773-.051.548.548,0,0,1,.051.773A25.605,25.605,0,0,1,1308.6-672.652Z" transform="translate(-112.102 -182.295)"/><path d="M1426.813-706.8a.547.547,0,0,1-.141-.042.547.547,0,0,1-.275-.724c.312-.7.595-1.416.84-2.14a.547.547,0,0,1,.694-.343.547.547,0,0,1,.343.694c-.256.756-.552,1.509-.878,2.237A.548.548,0,0,1,1426.813-706.8Z" transform="translate(-224.581 -155.539)"/><path d="M1422.262-822.851a.548.548,0,0,1-.535-.434,24.028,24.028,0,0,0-4.11-9.2.548.548,0,0,1,.12-.765.547.547,0,0,1,.765.12,25.123,25.123,0,0,1,4.3,9.62.548.548,0,0,1-.422.649A.535.535,0,0,1,1422.262-822.851Z" transform="translate(-217.491 -56.617)"/><g transform="translate(1155.61 -867.18)"><g transform="translate(0 2.112)"><path d="M1194.2-706.182h-.876a.563.563,0,0,1-.547-.566.563.563,0,0,1,.547-.566h.876a.563.563,0,0,1,.548.566A.563.563,0,0,1,1194.2-706.182Z" transform="translate(-1192.777 707.313)"/><path d="M1210.935-706.182h-.986a.563.563,0,0,1-.547-.566.563.563,0,0,1,.547-.566h.986a.563.563,0,0,1,.547.566A.563.563,0,0,1,1210.935-706.182Z" transform="translate(-1206.117 707.313)"/></g><g transform="translate(2.094 0)"><path d="M1203.907-698.851a.538.538,0,0,1-.536-.547v-.876a.538.538,0,0,1,.536-.547.538.538,0,0,1,.536.547v.876A.538.538,0,0,1,1203.907-698.851Z" transform="translate(-1203.371 704.217)"/><path d="M1203.907-715.92a.538.538,0,0,1-.536-.548v-.986a.538.538,0,0,1,.536-.548.537.537,0,0,1,.536.548v.986A.538.538,0,0,1,1203.907-715.92Z" transform="translate(-1203.371 718.001)"/></g></g><g transform="translate(1193.555 -903.92)"><g transform="translate(0 2.121)"><path d="M1386.215-892.056h-.876a.563.563,0,0,1-.548-.566.563.563,0,0,1,.548-.566h.876a.563.563,0,0,1,.547.566A.563.563,0,0,1,1386.215-892.056Z" transform="translate(-1384.791 893.187)"/><path d="M1402.949-892.056h-.985a.563.563,0,0,1-.548-.566.563.563,0,0,1,.548-.566h.985a.563.563,0,0,1,.548.566A.563.563,0,0,1,1402.949-892.056Z" transform="translate(-1398.131 893.187)"/></g><g transform="translate(2.071)"><path d="M1395.837-884.77a.563.563,0,0,1-.566-.548v-.876a.563.563,0,0,1,.566-.548.563.563,0,0,1,.566.548v.876A.563.563,0,0,1,1395.837-884.77Z" transform="translate(-1395.271 890.136)"/><path d="M1395.837-901.839a.563.563,0,0,1-.566-.548v-.986a.563.563,0,0,1,.566-.548.563.563,0,0,1,.566.548v.986A.563.563,0,0,1,1395.837-901.839Z" transform="translate(-1395.271 903.92)"/></g></g><path d="M1202.792-799.249a1.469,1.469,0,0,1-1.468-1.468,1.469,1.469,0,0,1,1.468-1.468,1.47,1.47,0,0,1,1.468,1.468A1.47,1.47,0,0,1,1202.792-799.249Zm0-1.841a.373.373,0,0,0-.373.373.373.373,0,0,0,.373.373.373.373,0,0,0,.373-.373A.373.373,0,0,0,1202.792-801.09Z" transform="translate(-44.025 -81.631)"/><path d="M1414.93-865.883a1.47,1.47,0,0,1-1.468-1.468,1.47,1.47,0,0,1,1.468-1.468,1.47,1.47,0,0,1,1.468,1.468A1.47,1.47,0,0,1,1414.93-865.883Zm0-1.841a.373.373,0,0,0-.373.373.373.373,0,0,0,.373.373.373.373,0,0,0,.373-.373A.373.373,0,0,0,1414.93-867.724Z" transform="translate(-214.242 -28.165)"/><g transform="translate(1146.456 -892.672)"><path d="M1228.736-837.565a.8.8,0,0,0-.691.79v3.2l.35-.247a.8.8,0,0,1,.938.013l.306.229v-2.549a5.206,5.206,0,0,0,3.645-4.85c0-3.656-2.389-6.018-6.085-6.018a5.94,5.94,0,0,0-5.817,4.611.8.8,0,0,0,.581.966.8.8,0,0,0,.966-.581,4.368,4.368,0,0,1,4.269-3.4c2.812,0,4.491,1.653,4.491,4.424A3.529,3.529,0,0,1,1228.736-837.565Z" transform="translate(-1206.557 847)"/><path d="M1150.163-711.961a.8.8,0,0,0-1.111-.19l-2.258,1.594a.8.8,0,0,0-.191,1.111.8.8,0,0,0,.651.337.8.8,0,0,0,.459-.147l2.258-1.595A.8.8,0,0,0,1150.163-711.961Z" transform="translate(-1146.456 738.918)"/><path d="M1187.248-777.9a.8.8,0,0,1-.8-.8v-.4l-16.593,11.717a.8.8,0,0,0-.19,1.111.8.8,0,0,0,.651.337.794.794,0,0,0,.459-.147l16.47-11.63,15.453,11.565a.8.8,0,0,0,1.116-.16.8.8,0,0,0-.16-1.116l-15.611-11.683v.41A.8.8,0,0,1,1187.248-777.9Z" transform="translate(-1164.962 792.524)"/><path d="M1255.543-780.923l-.35.247v.4a.8.8,0,0,0,.8.8.8.8,0,0,0,.8-.8v-.41l-.306-.229A.8.8,0,0,0,1255.543-780.923Z" transform="translate(-1233.705 794.098)"/><path d="M1350.244-708.984a.8.8,0,0,0,.64-.319.8.8,0,0,0-.16-1.116l-2.09-1.564a.8.8,0,0,0-1.116.16.8.8,0,0,0,.16,1.116l2.09,1.564A.8.8,0,0,0,1350.244-708.984Z" transform="translate(-1307.657 738.792)"/></g></g></svg>